<?xml version="1.0" encoding="UTF-8" standalone="no"?>
<!-- Created with Inkscape (http://www.inkscape.org/) -->

<svg
   xmlns:dc="http://purl.org/dc/elements/1.1/"
   xmlns:cc="http://creativecommons.org/ns#"
   xmlns:rdf="http://www.w3.org/1999/02/22-rdf-syntax-ns#"
   xmlns:svg="http://www.w3.org/2000/svg"
   xmlns="http://www.w3.org/2000/svg"
   xmlns:sodipodi="http://sodipodi.sourceforge.net/DTD/sodipodi-0.dtd"
   xmlns:inkscape="http://www.inkscape.org/namespaces/inkscape"
   width="71.376167mm"
   height="59.972668mm"
   viewBox="0 0 252.90768 212.50158"
   id="svg2"
   version="1.1"
   inkscape:version="0.91 r"
   sodipodi:docname="logo.svg">
  <defs
     id="defs4" />
  <sodipodi:namedview
     id="base"
     pagecolor="#ffffff"
     bordercolor="#666666"
     borderopacity="1.0"
     inkscape:pageopacity="0.0"
     inkscape:pageshadow="2"
     inkscape:zoom="1.090344"
     inkscape:cx="12.115123"
     inkscape:cy="-6.9515657"
     inkscape:document-units="px"
     inkscape:current-layer="layer1"
     showgrid="false"
     inkscape:window-width="1855"
     inkscape:window-height="1056"
     inkscape:window-x="65"
     inkscape:window-y="24"
     inkscape:window-maximized="1"
     fit-margin-top="0"
     fit-margin-left="0"
     fit-margin-right="0"
     fit-margin-bottom="0" />
  <metadata
     id="metadata7">
    <rdf:RDF>
      <cc:Work
         rdf:about="">
        <dc:format>image/svg+xml</dc:format>
        <dc:type
           rdf:resource="http://purl.org/dc/dcmitype/StillImage" />
        <dc:title></dc:title>
      </cc:Work>
    </rdf:RDF>
  </metadata>
  <g
     inkscape:label="Layer 1"
     inkscape:groupmode="layer"
     id="layer1"
     transform="translate(-84.668042,-338.50465)">
    <rect
       style="color:#000000;clip-rule:nonzero;display:inline;overflow:visible;visibility:visible;opacity:1;isolation:auto;mix-blend-mode:normal;color-interpolation:sRGB;color-interpolation-filters:linearRGB;solid-color:#000000;solid-opacity:1;fill:#00ccff;fill-opacity:1;fill-rule:evenodd;stroke:#000000;stroke-width:3.40000033;stroke-linecap:butt;stroke-linejoin:miter;stroke-miterlimit:4;stroke-dasharray:none;stroke-dashoffset:0;stroke-opacity:1;marker:none;color-rendering:auto;image-rendering:auto;shape-rendering:auto;text-rendering:auto;enable-background:accumulate"
       id="rect4142"
       width="249.50769"
       height="209.10158"
       x="86.368042"
       y="340.20465"
       ry="52.275394"
       inkscape:export-xdpi="90"
       inkscape:export-ydpi="90"
       rx="52.275394" />
    <path
       style="font-style:normal;font-weight:normal;font-size:52.46879959px;line-height:125%;font-family:sans-serif;letter-spacing:0px;word-spacing:0px;fill:#000000;fill-opacity:1;stroke:none;stroke-width:1px;stroke-linecap:butt;stroke-linejoin:miter;stroke-opacity:1"
       d="m 113.80368,407.58622 c 7.93677,-4.57826 22.4286,-7.50724 22.8003,20.0365 0.0993,16.80782 -9.13302,23.10389 -11.61365,31.52966 2.72051,14.35678 15.7841,18.61723 13.96933,34.32566 -8.00058,2.76757 -11.96624,-20.6035 -18.525,-27.95893 -4.0042,-1.4906 -8.96764,-15.33879 -1.772,-15.1126 8.79508,4.66497 20.05751,-31.15809 7.15439,-36.48756 -10.54023,-8.53655 -13.70463,17.12489 -13.53483,36.72024 -3.00013,14.23529 2.37686,39.01914 -3.67895,46.40572 -5.11421,-13.3201 -0.82839,-33.78382 -0.6149,-49.75026 2.3755,-12.85734 0.0999,-29.6502 2.59491,-39.32639 1.01286,-1.01505 2.16995,-1.12201 3.2204,-0.38204 z m 52.28946,66.06286 c -2.4553,19.07156 -14.55358,33.01261 -20.91565,16.73343 -4.69587,-18.71889 0.1409,-42.94224 6.15761,-56.52193 4.76084,-15.79033 16.30199,-3.67702 10.42574,14.72415 -1.93073,14.46933 -18.3088,20.03944 -11.57021,36.41325 6.91465,13.08298 11.88364,-16.58302 15.90251,-11.3489 z m -17.80558,-9.59572 c 3.61278,-5.08782 14.28214,-19.8608 8.51377,-27.97697 -4.85465,4.23305 -7.22738,16.86093 -8.51377,27.97697 z m 27.13109,-16.42344 c -7.52572,-10.08749 7.76675,-22.96901 3.17955,-3.07546 -0.80276,2.08349 -1.99971,3.23791 -3.17955,3.07546 z m -0.10248,45.64118 c -8.59298,-5.25249 5.4386,-29.14944 2.98204,-6.22499 -0.6852,2.78617 -1.79867,4.79093 -2.98204,6.22499 z m 49.24074,-71.2913 c -6.94101,14.11112 -10.43924,46.40238 -19.57968,48.81396 -5.83756,-6.13306 -3.69125,-39.30536 -8.565,-38.25432 -1.11491,17.57658 -3.97989,34.04021 -4.26733,51.93021 0.25182,15.37987 -7.47382,16.15336 -5.37355,-0.44126 2.74962,-24.8436 6.07288,-49.67225 6.69786,-75.52335 7.07493,-8.80601 7.19712,20.40463 9.65072,30.44667 1.10302,11.66875 3.86086,29.44882 7.70591,11.27152 5.28963,-15.15051 9.15669,-33.19335 15.42196,-46.32766 7.68099,12.0158 -0.35463,37.20645 0.70093,54.81367 -0.56896,9.85419 3.21474,44.94004 -3.87267,32.90308 -2.30932,-20.44857 1.41809,-42.31891 1.43868,-63.40769 l 0.0659,-3.11282 -0.0238,-3.11201 0,0 z m 20.49562,-9.84175 c -7.55966,-10.96739 7.63467,-30.28005 3.8528,-6.6472 -0.68235,3.60427 -2.1618,6.46019 -3.8528,6.6472 z m -3.35616,68.70781 c 4.06735,12.28793 -5.75131,24.45301 -4.42828,5.08799 1.40987,-16.98519 -0.0924,-43.88324 5.52112,-53.57381 4.7694,9.62233 -2.17588,28.48114 -1.03962,42.21665 -0.037,2.08846 -0.052,4.17891 -0.0532,6.26917 z m 27.72034,-33.64653 c -8.81507,7.90869 -7.25872,44.83591 -16.80251,45.9202 -2.71692,-15.95515 0.65351,-36.38958 0.74489,-53.6878 4.67116,-18.00208 5.43648,14.94013 3.29868,22.47814 -1.2342,9.55736 -0.25004,19.54298 1.97686,4.94142 1.36947,-16.83791 12.69072,-46.88062 16.95089,-19.52519 0.52032,14.53711 0.56912,31.97757 6.83466,36.41967 -3.56791,17.44953 -11.92831,0.96684 -9.85473,-14.68229 -0.23505,-7.60079 -0.0906,-17.2256 -3.14874,-21.86415 z m 35.76486,21.83641 c -2.70852,17.57263 -17.36687,42.93818 -19.61507,12.32352 -0.0847,-19.8812 5.63772,-43.09799 13.64596,-48.976 4.64683,0.68909 9.89529,5.16575 9.22954,-11.16503 0.71363,-8.54794 2.18112,-39.7467 6.71914,-25.66587 -1.01656,20.35231 -4.72335,39.5328 -5.60434,60.10883 -1.05933,13.09141 -1.60588,35.20621 6.5823,27.61853 -2.47212,21.77644 -14.18805,9.10275 -11.15169,-10.98813 l 0.19416,-3.25585 z m -3.35616,-28.78716 c -7.74837,2.14788 -16.08052,34.22115 -9.70252,45.29473 6.28882,-1.77115 18.70193,-36.6904 9.70252,-45.29473 z"
       id="text4136"
       inkscape:connector-curvature="0" />
  </g>
</svg>
